<svg fill="#000000" xmlns="http://www.w3.org/2000/svg"  viewBox="0 0 50 50" width="50px" height="50px"><path d="M 37.789062 0.001953125 C 37.340069 0.012126715 36.8928 0.12164185 36.482422 0.33398438 C 30.753464 3.2916874 27.404024 6.3224763 25.482422 8.6523438 C 24.347264 10.028678 23.786688 11.044624 23.447266 11.773438 C 22.512973 11.448279 20.913434 11 18 11 C 11.974389 11 7.3751737 12.597669 4.7714844 13.917969 C 3.7599798 14.431232 2.9624344 15.275823 2.5 16.306641 C 1.5939758 18.326017 0 22.465328 0 27 A 1.0001 1.0001 0 0 0 1.4472656 27.894531 C 1.4472656 27.894531 3.8634913 26.746756 7.1972656 26.25 C 4.02887 29.156246 2.1679688 31.445314 2.1679688 31.445312 A 1.0001 1.0001 0 0 0 2.21875 32.625 C 2.21875 32.625 6.2297236 37.672781 10.400391 40.800781 A 1.0001 1.0001 0 0 0 11.832031 40.554688 C 12.596916 39.407359 12.713155 39.43155 13.357422 38.646484 C 13.195375 39.755838 13 40.881428 13 42 A 1.0001 1.0001 0 0 0 13.445312 42.832031 C 13.445312 42.832031 16.733333 45 22 45 C 23.695969 45 25.007936 44.774383 25.980469 44.527344 C 25.987091 44.68468 26 44.826746 26 45 L 26 49 A 1.0001 1.0001 0 1 0 28 49 L 28 45 C 28 43.388889 27.728961 42.256972 27.427734 41.503906 C 27.317658 41.228714 27.195496 41.008726 27.080078 40.820312 C 27.146938 40.746009 27.226901 40.683091 27.287109 40.603516 A 1.0003992 1.0003992 0 1 0 25.691406 39.396484 C 25.581824 39.541316 25.445114 39.656779 25.296875 39.753906 A 1.0001 1.0001 0 0 0 25.132812 39.853516 C 24.941175 39.945772 24.72977 40 24.5 40 C 23.659188 40 23 39.340812 23 38.5 C 23 37.998845 23.238226 37.565906 23.605469 37.294922 A 1.0001 1.0001 0 0 0 23.666016 37.248047 C 23.903374 37.091385 24.188504 37 24.5 37 C 24.600825 37 24.702877 37.01075 24.806641 37.03125 A 1.0003114 1.0003114 0 1 0 25.193359 35.068359 C 24.973123 35.024856 24.741175 35 24.5 35 C 24.328778 35 24.164908 35.026576 24 35.050781 L 24 32 C 24 29.055556 24.245555 27.119883 24.480469 25.945312 C 24.514779 25.773781 24.509476 25.863463 24.541016 25.726562 C 24.918626 26.014291 25.332453 26.520153 25.65625 26.664062 C 26.369479 26.981054 27 27 27 27 A 1.0001 1.0001 0 0 0 28 26 C 28 26 28.0037 24.291719 28.470703 22.394531 C 28.916052 20.585301 29.815796 18.827621 31.226562 18.080078 C 35.514767 18.585174 39.109375 22.642578 39.109375 22.642578 A 1.0001 1.0001 0 0 0 39.671875 22.978516 C 39.671875 22.978516 39.957238 23.037766 40.330078 23.173828 C 40.352884 23.182151 40.375319 23.19608 40.398438 23.205078 C 39.964499 23.363721 39.534637 23.617601 39.15625 24.007812 C 38.450668 24.735444 38 25.872024 38 27.375 C 38 28.291667 38.244766 29.002579 38.699219 29.457031 C 39.153671 29.911484 39.708333 30 40 30 C 40.837506 30 41.612135 29.632525 42.337891 29.033203 C 42.967008 30.38948 43.934778 31.332767 44.724609 32.009766 C 45.185929 32.405183 45.593424 32.722964 45.828125 32.945312 C 45.918842 33.031255 45.940265 33.070514 45.962891 33.103516 C 45.929191 33.212533 45.864693 33.387835 45.695312 33.630859 C 45.425464 34.018033 44.942342 34.51897 44.111328 35.017578 C 42.4493 36.014795 39.378788 37 34 37 C 31.633667 37 30 38.359081 30 40 C 30 40.833333 30.433379 41.896889 31.542969 42.689453 C 32.652559 43.482017 34.366667 44 37 44 C 37.815364 44 38.414943 43.866677 39.035156 43.748047 C 38.489088 44.604999 38 45.619572 38 47 L 38 49 A 1.0001 1.0001 0 1 0 40 49 L 40 47 C 40 45.763889 40.437542 45.043186 41.058594 44.234375 C 41.629586 43.490758 42.376907 42.691572 42.814453 41.564453 C 42.846993 41.497253 42.935547 41.351562 42.935547 41.351562 L 42.927734 41.349609 C 42.934234 41.329739 42.948808 41.318918 42.955078 41.298828 A 1.0001 1.0001 0 0 0 42.402344 40.087891 L 42.904297 37.576172 C 43.655352 37.293572 44.589089 37.062171 45.138672 36.732422 C 46.182658 36.10603 46.887036 35.419467 47.335938 34.775391 C 47.78483 34.13136 48 33.583333 48 33 C 48 32.25 47.562174 31.832339 47.203125 31.492188 C 46.844076 31.152036 46.439071 30.844817 46.025391 30.490234 C 45.500589 30.040404 44.989537 29.515729 44.572266 28.882812 C 47.539439 25.772606 47.992188 22.123047 47.992188 22.123047 A 1.0001 1.0001 0 0 0 47.980469 21.804688 C 47.980469 21.804688 47.799676 20.973419 47.169922 19.923828 C 47.014153 19.664214 46.729323 19.343076 46.511719 19.050781 C 47.184951 19.300429 47.861732 19.452215 48.455078 19.837891 A 1.0001 1.0001 0 0 0 50 19 C 50 13.9 49.243912 11.001496 48.394531 9.3027344 C 47.969841 8.4533536 47.517153 7.9060895 47.132812 7.5644531 C 46.748472 7.2228167 46.316406 7.0507812 46.316406 7.0507812 A 1.0001 1.0001 0 0 0 46 7 C 44.362517 7 43.090359 7.2149891 41.896484 7.4121094 C 42.596205 6.824966 43.389079 6.258328 44.316406 5.9492188 A 1.0001 1.0001 0 0 0 44.894531 4.5527344 C 44.344869 3.4541591 43.284721 2.6844516 42.175781 1.9589844 C 41.066841 1.2335172 39.89618 0.63140823 39.107422 0.27148438 A 1.0001 1.0001 0 0 0 39.105469 0.27148438 C 38.68802 0.081441545 38.238057 -0.008220475 37.789062 0.001953125 z M 37.835938 2.0019531 C 37.985906 1.9984954 38.136839 2.0278396 38.277344 2.0917969 C 38.976586 2.410873 40.092221 2.9852797 41.082031 3.6328125 C 41.686988 4.0285748 41.937882 4.3661943 42.318359 4.7421875 C 39.740791 6.1491707 38.167969 8.4453125 38.167969 8.4453125 A 1.0001 1.0001 0 0 0 39.316406 9.9492188 C 39.316406 9.9492188 42.073627 9.0680567 45.763672 9.0234375 C 45.781432 9.0398225 45.744777 9.0072979 45.804688 9.0605469 C 45.982847 9.2189105 46.280159 9.546646 46.605469 10.197266 C 47.169903 11.326133 47.722645 13.738727 47.880859 17.476562 C 45.500619 16.442042 43.107422 16.005859 43.107422 16.005859 A 1.0001 1.0001 0 0 0 42.417969 17.814453 C 44.058005 18.985907 44.959832 20.125762 45.455078 20.951172 C 45.895186 21.684685 45.939413 21.973919 45.957031 22.056641 C 45.924825 22.281041 45.591826 24.313723 44 26.449219 L 44 26 C 44 25.954732 43.994654 25.896799 43.994141 25.849609 C 43.995004 25.815951 44 25.783989 44 25.75 C 44 25.680864 43.98541 25.613516 43.980469 25.544922 C 43.940096 24.567022 43.732853 23.31879 42.707031 22.292969 C 42.166003 21.75194 41.528535 21.482106 41.015625 21.294922 C 40.664056 21.166618 40.533437 21.146011 40.373047 21.107422 C 40.001857 20.663711 36.370618 16.399183 31.074219 16.001953 A 1.0001 1.0001 0 0 0 30.974609 16 A 1.0001 1.0001 0 0 0 30.599609 16.083984 C 28.135022 17.162241 27.062297 19.752656 26.529297 21.917969 C 26.180437 23.335214 26.224044 23.853112 26.183594 24.589844 C 25.791481 24.374826 25.342843 24.12314 24.800781 23.400391 A 1.0001 1.0001 0 0 0 23.105469 23.552734 C 23.105469 23.552734 22.784617 24.229258 22.519531 25.554688 C 22.254445 26.88012 22 28.944444 22 32 L 22 36.064453 C 21.384012 36.696494 21 37.555737 21 38.5 C 21 40.421188 22.578812 42 24.5 42 C 24.81132 42 25.109002 41.950839 25.396484 41.873047 C 25.440819 41.952338 25.490821 42.042486 25.572266 42.246094 C 25.605634 42.329516 25.639984 42.439873 25.673828 42.544922 C 24.846872 42.769899 23.629465 43 22 43 C 17.886429 43 15.671361 41.770554 15.064453 41.408203 C 15.177531 38.687896 15.970703 35.242188 15.970703 35.242188 A 1.0001 1.0001 0 0 0 14.292969 34.292969 C 14.292969 34.292969 12.538135 36.317934 10.892578 38.539062 C 7.718394 35.957826 4.9623305 32.776014 4.3027344 31.974609 C 4.808742 31.277586 6.4577742 29.115031 10.625 25.78125 A 1.0001 1.0001 0 0 0 10 24 C 6.3371 24 3.7977512 24.844569 2.2265625 25.464844 C 2.5365151 22.005616 3.594536 18.751341 4.3242188 17.125 C 4.6037844 16.501817 5.0712859 16.007908 5.6757812 15.701172 C 8.0100919 14.517471 12.329611 13 18 13 C 21.833333 13 23.552734 13.894531 23.552734 13.894531 A 1.0001 1.0001 0 0 0 24.962891 13.273438 C 24.962891 13.273438 25.287493 12.032914 27.025391 9.9257812 C 28.763288 7.8186487 31.883348 4.9596251 37.400391 2.1113281 A 1.0001 1.0001 0 0 0 37.402344 2.1113281 C 37.536965 2.0416707 37.685969 2.0054108 37.835938 2.0019531 z M 41.5 25 C 41.77989 25 41.960527 25.157422 41.988281 25.636719 C 41.989969 25.690521 41.993371 25.743886 41.994141 25.798828 C 41.97786 26.442332 41.659352 26.972013 41.205078 27.380859 C 41.111015 27.465517 41.012277 27.536215 40.914062 27.599609 C 40.762583 27.255525 40.422721 27.016453 40.025391 27.005859 C 40.086583 26.143962 40.336038 25.664203 40.59375 25.398438 C 40.888168 25.094819 41.25 25 41.5 25 z M 29.25 28 C 27.533333 28 26 29.282407 26 31 C 26 31 26.0072 31.843609 26.574219 32.599609 C 27.141219 33.355609 28.277778 34 30 34 C 30.625 34 31.420965 33.90215 32.183594 33.654297 C 32.564908 33.53037 32.938699 33.374874 33.287109 33.103516 C 33.635519 32.832158 34 32.349702 34 31.75 C 34 30.658333 33.341707 29.776209 32.486328 29.115234 C 31.630949 28.454259 30.5 28 29.25 28 z M 29.25 30 C 30 30 30.744051 30.295741 31.263672 30.697266 C 31.708996 31.04138 31.839886 31.389445 31.894531 31.599609 C 31.803071 31.649249 31.729643 31.698899 31.566406 31.751953 C 31.079035 31.910349 30.375 32 30 32 C 29.324507 32 28.913489 31.899267 28.640625 31.769531 A 1 1 0 0 0 28.560547 30.173828 C 28.751987 30.074206 28.972246 30 29.25 30 z M 38.5 31 C 36.851509 31 36.128906 32.509766 36.128906 32.509766 A 1.0001 1.0001 0 1 0 37.871094 33.490234 C 37.871094 33.490234 38.274491 33 38.5 33 C 39.081255 33 39.335938 33.248047 39.335938 33.248047 A 1.0002763 1.0002763 0 1 0 40.664062 31.751953 C 40.664062 31.751953 39.792745 31 38.5 31 z M 40.708984 38.353516 L 40.107422 41.367188 C 39.517427 41.683619 38.633074 42 37 42 C 34.633333 42 33.347441 41.517983 32.707031 41.060547 C 32.066621 40.603111 32 40.166667 32 40 C 32 39.838919 32.366333 39 34 39 C 36.734978 39 38.913561 38.744486 40.708984 38.353516 z"/></svg>